v -1.065980 83.484001 2.246174
v -1.066130 83.275200 2.340224
v -0.965159 83.298698 2.183964
v -0.973271 83.253296 2.174923
v -1.345150 83.625595 2.281564
v -1.286710 83.282097 2.412673
v -1.214770 82.983795 2.254414
v -1.487730 82.946297 2.213994
v -1.559370 83.243004 2.371403
v -1.695710 83.011002 2.110384
v -1.775480 83.231300 2.218463
v -0.981384 83.207794 2.165884
v -1.098080 83.095795 2.210144
v -1.562520 83.545296 2.228724
v -1.744750 83.468895 2.146693
v -1.908410 83.191895 1.921864
v -1.826580 83.330399 2.034284
vt 0.721548 -0.358210
vt 0.721433 -0.512261
vt 0.795931 -0.494918
vt 0.789945 -0.528465
vt 0.515580 -0.253762
vt 0.558697 -0.507221
vt 0.611772 -0.727238
vt 0.410383 -0.754958
vt 0.355229 -0.534650
vt 0.256938 -0.707226
vt 0.198085 -0.544681
vt 0.783960 -0.562018
vt 0.697866 -0.644628
vt 0.355204 -0.312986
vt 0.220759 -0.369399
vt 0.100016 -0.573689
vt 0.160387 -0.471544
vn 0.4730 0.3587 0.8047
vn 0.5634 -0.1248 0.8166
vn 0.8417 -0.0314 0.5390
vn 0.7554 -0.3425 0.5587
vn -0.0701 0.3453 0.9359
vn 0.0927 -0.0297 0.9952
vn 0.2292 -0.4125 0.8816
vn -0.2747 -0.5015 0.8203
vn -0.3556 -0.0772 0.9314
vn -0.6106 -0.5072 0.6082
vn -0.7493 -0.1127 0.6525
vn 0.5476 -0.2559 0.7966
vn 0.5530 -0.4244 0.7170
vn -0.3796 0.3545 0.8545
vn -0.6786 0.3133 0.6642
vn -0.8919 -0.1639 0.4215
vn -0.8993 0.2289 0.3726
f 1/1/1 2/2/2 3/3/3
f 2/2/2 4/4/4 3/3/3
f 5/5/5 6/6/6 1/1/1
f 6/6/6 2/2/2 1/1/1
f 7/7/7 6/6/6 8/8/8
f 6/6/6 9/9/9 8/8/8
f 8/8/8 9/9/9 10/10/10
f 9/9/9 11/11/11 10/10/10
f 12/12/12 4/4/4 13/13/13
f 4/4/4 2/2/2 13/13/13
f 14/14/14 15/15/15 9/9/9
f 15/15/15 11/11/11 9/9/9
f 7/7/7 13/13/13 6/6/6
f 13/13/13 2/2/2 6/6/6
f 9/9/9 6/6/6 14/14/14
f 6/6/6 5/5/5 14/14/14
f 16/16/16 11/11/11 17/17/17
f 11/11/11 15/15/15 17/17/17
f 10/10/10 11/11/11 16/16/16
