v 0.981384 83.207794 2.165554
v 1.093030 83.096001 2.215194
v 0.973271 83.253296 2.174884
v 1.059850 83.274300 2.340343
v 1.204680 82.984200 2.264843
v 1.277510 83.278595 2.413284
v 1.491390 82.948006 2.223124
v 1.559370 83.243004 2.371403
v 1.557590 83.530098 2.227714
v 1.742460 83.463196 2.146343
v 1.776860 83.232697 2.224164
v 1.908410 83.191895 1.921864
v 1.825430 83.327599 2.034104
v 1.062010 83.477501 2.242944
v 0.965159 83.298698 2.184204
v 1.335400 83.606094 2.269894
v 1.703750 83.013397 2.125404
vt 0.216040 -0.562018
vt 0.298411 -0.644473
vt 0.210055 -0.528465
vt 0.273932 -0.512929
vt 0.380782 -0.726928
vt 0.434519 -0.509728
vt 0.592313 -0.753689
vt 0.642473 -0.536012
vt 0.641155 -0.324174
vt 0.777548 -0.373553
vt 0.802928 -0.543597
vt 0.899984 -0.573689
vt 0.838766 -0.473618
vt 0.275525 -0.363015
vt 0.204069 -0.494918
vt 0.477226 -0.268151
vt 0.748990 -0.705418
vn -0.5988 -0.2619 0.7568
vn -0.5776 -0.4044 0.7091
vn -0.7778 -0.3368 0.5306
vn -0.5781 -0.1068 0.8089
vn -0.2412 -0.3887 0.8892
vn -0.0973 -0.0063 0.9952
vn 0.2658 -0.4817 0.8350
vn 0.3479 -0.0490 0.9362
vn 0.3563 0.3917 0.8483
vn 0.6723 0.3439 0.6555
vn 0.7494 -0.0781 0.6575
vn 0.9031 -0.1270 0.4101
vn 0.8988 0.2546 0.3568
vn -0.4704 0.3897 0.7917
vn -0.8564 -0.0234 0.5157
vn 0.0527 0.3927 0.9181
vn 0.6144 -0.4819 0.6247
f 1/1/1 2/2/2 3/3/3
f 2/2/2 4/4/4 3/3/3
f 5/5/5 6/6/6 2/2/2
f 6/6/6 4/4/4 2/2/2
f 5/5/5 7/7/7 6/6/6
f 7/7/7 8/8/8 6/6/6
f 9/9/9 8/8/8 10/10/10
f 8/8/8 11/11/11 10/10/10
f 12/12/12 13/13/13 11/11/11
f 13/13/13 10/10/10 11/11/11
f 14/14/14 15/15/15 4/4/4
f 15/15/15 3/3/3 4/4/4
f 4/4/4 6/6/6 14/14/14
f 6/6/6 16/16/16 14/14/14
f 17/17/17 12/12/12 11/11/11
f 16/16/16 6/6/6 9/9/9
f 6/6/6 8/8/8 9/9/9
f 11/11/11 8/8/8 17/17/17
f 8/8/8 7/7/7 17/17/17
